<svg id="Capa_1" enable-background="new 0 0 419.513 419.513" height="512" viewBox="0 0 419.513 419.513" width="512" xmlns="http://www.w3.org/2000/svg"><g><g><g fill="#ebf0f3"><path d="m41.971 86.024h377.287v4.669h-377.287z"/><path d="m41.971 116.171h377.287v4.669h-377.287z"/><path d="m41.971 146.267h377.287v4.669h-377.287z"/><path d="m41.971 176.413h377.287v4.669h-377.287z"/><path d="m41.971 206.509h377.287v4.669h-377.287z"/><path d="m41.971 236.655h377.287v4.669h-377.287z"/><path d="m41.971 266.802h377.287v4.669h-377.287z"/><path d="m41.971 296.897h377.287v4.669h-377.287z"/></g><path d="m41.971 327.044h377.287v4.669h-377.287z" fill="#d5d6db"/><path d="m400.024 224.018c-7.917-1.574-22.128 17.713-29.689 14.515-32.938-14.058-37.454-140.429-72.524-139.567s-32.684 136.623-67.145 140.938c-14.363 1.776-23.093-52.021-37.505-50.752-23.6 1.776-28.117 89.373-51.665 92.267-15.682 1.929-28.979-54.051-44.61-51.868-26.239 3.552-54.711 104.903-54.711 104.903h377.338v-90.44s-13.093-18.778-19.489-19.996z" fill="#029bc5"/><path d="m0 85.06h25.528v5.177h-25.528z" fill="#3a556a"/><path d="m0 115.916h25.528v5.177h-25.528z" fill="#3a556a"/><path d="m0 146.723h25.528v5.177h-25.528z" fill="#3a556a"/><path d="m0 177.58h25.528v5.177h-25.528z" fill="#3a556a"/><path d="m0 208.386h25.528v5.177h-25.528z" fill="#3a556a"/><path d="m0 239.243h25.528v5.177h-25.528z" fill="#3a556a"/><path d="m0 270.05h25.528v5.177h-25.528z" fill="#3a556a"/><path d="m0 300.906h25.528v5.177h-25.528z" fill="#3a556a"/><path d="m400.024 264.619c-7.917-1.016-22.128 11.216-29.689 9.186-32.938-8.932-37.454-88.764-72.524-88.308-35.069.456-32.684 86.278-67.145 89.171-14.363 1.116-23.093-32.887-37.505-32.227-23.6 1.167-28.117 56.537-51.665 58.364-15.682 1.218-28.979-34.156-44.61-32.785-26.239 2.334-54.711 66.434-54.711 66.434h377.338v-57.197s-13.093-11.673-19.489-12.638z" fill="#fcd462"/></g></g></svg>